<svg xmlns="http://www.w3.org/2000/svg" width="32" height="32" viewBox="0 0 24 24" fill="none" stroke="#6096ba" stroke-width="2" stroke-linecap="round" stroke-linejoin="round">
  <!-- Brain Left Hemisphere -->
  <path d="M9.5 2A2.5 2.5 0 0 1 12 4.5v15a2.5 2.5 0 0 1-4.96.44 2.5 2.5 0 0 1-2.96-3.08 3 3 0 0 1-.34-5.58 2.5 2.5 0 0 1 1.32-4.24 2.5 2.5 0 0 1 4.44-1.04Z" />
  <!-- Brain Right Hemisphere -->
  <path d="M14.5 2A2.5 2.5 0 0 0 12 4.5v15a2.5 2.5 0 0 0 4.96.44 2.5 2.5 0 0 0 2.96-3.08 3 3 0 0 0 .34-5.58 2.5 2.5 0 0 0-1.32-4.24 2.5 2.5 0 0 0-4.44-1.04Z" />
  <!-- Letter I -->
  <line x1="12" y1="7" x2="12" y2="17" stroke="#fff" stroke-width="2.5" stroke-linecap="round" />
  <line x1="10" y1="7" x2="14" y2="7" stroke="#fff" stroke-width="2" stroke-linecap="round" />
  <line x1="10" y1="17" x2="14" y2="17" stroke="#fff" stroke-width="2" stroke-linecap="round" />
</svg> 